<svg width="20" height="21" viewBox="0 0 20 21" fill="none" xmlns="http://www.w3.org/2000/svg">
<path fill-rule="evenodd" clip-rule="evenodd" d="M9.37374 3.41675C6.01928 3.41675 3.29996 6.13607 3.29996 9.49055C3.29996 12.845 6.01928 15.5643 9.37374 15.5643C12.7282 15.5643 15.4475 12.845 15.4475 9.49055C15.4475 6.13607 12.7282 3.41675 9.37374 3.41675ZM2.04996 9.49055C2.04996 5.44572 5.32892 2.16675 9.37374 2.16675C13.4186 2.16675 16.6975 5.44572 16.6975 9.49055C16.6975 13.5354 13.4186 16.8143 9.37374 16.8143C5.32892 16.8143 2.04996 13.5354 2.04996 9.49055Z" fill="#717784"/>
<path fill-rule="evenodd" clip-rule="evenodd" d="M13.9466 13.5398L18.6262 18.2072L17.7434 19.0922L13.0638 14.4248L13.9466 13.5398Z" fill="#717784"/>
</svg>
